<?xml version="1.0" encoding="UTF-8"?>
<svg width="512px" height="512px" viewBox="0 0 512 512" version="1.1" xmlns="http://www.w3.org/2000/svg" xmlns:xlink="http://www.w3.org/1999/xlink">
    <!-- Generator: Sketch 63.1 (92452) - https://sketch.com -->
    <title>emojis</title>
    <desc>Created with Sketch.</desc>
    <g id="Page-1" stroke="none" stroke-width="1" fill="none" fill-rule="evenodd">
        <g id="emojis" fill-rule="nonzero">
            <path d="M286,490.11 C276.176,491.357 266.163,492 256,492 C125.661,492 20,386.339 20,256 C20,125.661 125.661,20 256,20 C266.163,20 276.176,20.643 286,21.89 C169.826,36.628 80,135.824 80,256 C80,376.176 169.826,475.372 286,490.11 Z M234.594,349.906 C224.406,333.332 236.552,312 256.008,312 L196.008,312 C176.552,312 164.406,333.332 174.594,349.906 C187.301,370.579 211.262,392 256,392 L265.157,379.789 C250.981,371.739 241.243,360.723 234.594,349.906 Z" id="Shape" fill="#CEE1F2"></path>
            <path d="M256,512 C187.62,512 123.333,485.371 74.98,437.02 C26.629,388.667 0,324.38 0,256 C0,187.62 26.629,123.333 74.98,74.98 C123.333,26.629 187.62,-5.68434189e-14 256,-5.68434189e-14 C324.38,-5.68434189e-14 388.667,26.629 437.02,74.98 C485.371,123.333 512,187.62 512,256 C512,324.38 485.371,388.667 437.02,437.02 C388.667,485.371 324.38,512 256,512 Z M256,40 C136.897,40 40,136.897 40,256 C40,375.103 136.897,472 256,472 C375.103,472 472,375.103 472,256 C472,136.897 375.103,40 256,40 Z M256,412 C200.859,412 172.03,383.929 157.555,360.38 C148.96,346.396 148.624,329.469 156.659,315.102 C164.627,300.852 179.705,292 196.009,292 L315.993,292 C332.297,292 347.375,300.852 355.343,315.102 C363.377,329.469 363.041,346.395 354.447,360.379 C339.97,383.929 311.141,412 256,412 L256,412 Z M196.008,332 C193.424,332 192.119,333.644 191.571,334.624 C190.941,335.749 190.441,337.497 191.633,339.435 C204.915,361.043 226.571,372 256,372 C285.429,372 307.085,361.043 320.367,339.434 C321.558,337.497 321.058,335.749 320.429,334.624 C319.881,333.644 318.576,332 315.992,332 L196.008,332 Z" id="Shape" fill="#0023C4"></path>
            <path d="M343,240 C331.954,240 323,231.046 323,220 L323,165 C323,153.954 331.954,145 343,145 C354.046,145 363,153.954 363,165 L363,220 C363,231.046 354.046,240 343,240 Z M188,220 L188,165 C188,153.954 179.046,145 168,145 C156.954,145 148,153.954 148,165 L148,220 C148,231.046 156.954,240 168,240 C179.046,240 188,231.046 188,220 Z" id="Shape" fill="#0023C4"></path>
        </g>
    </g>
</svg>