<?xml version="1.0" encoding="UTF-8"?>
<svg width="364px" height="103px" viewBox="0 0 364 103" version="1.1" xmlns="http://www.w3.org/2000/svg" xmlns:xlink="http://www.w3.org/1999/xlink">
    <!-- Generator: Sketch 63.1 (92452) - https://sketch.com -->
    <title>Group</title>
    <desc>Created with Sketch.</desc>
    <g id="Page-1" stroke="none" stroke-width="1" fill="none" fill-rule="evenodd">
        <g id="Artboard" transform="translate(-143.000000, -279.000000)">
            <g id="Group" transform="translate(143.000000, 279.000000)">
                <path d="M70.5854,63.149 C70.4774,61.339 70.3114,59.53 70.0894,57.721 C69.9814,56.469 69.8984,55.218 69.8404,53.963 C69.7864,52.712 69.8154,51.458 69.9234,50.207 C70.1454,47.004 70.2554,43.768 70.2554,40.501 C70.2554,37.227 70.1994,33.994 70.0894,30.792 C69.9814,27.73 70.0064,24.667 70.1724,21.606 C70.3364,18.545 70.2554,15.481 69.9234,12.42 C69.9234,11.724 69.9814,11.17 70.0894,10.753 C70.1994,9.637 70.0634,8.488 69.6764,7.307 C69.2914,6.124 68.7414,5.045 68.0214,4.071 C67.3054,3.096 66.4514,2.298 65.4594,1.67 C64.4654,1.044 63.3644,0.869 62.1504,1.149 C61.2694,1.285 60.3314,1.285 59.3394,1.149 C56.1434,1.007 53.4134,2.157 51.1514,4.594 C48.8934,7.027 47.4304,10.125 46.7684,13.881 C46.6614,14.579 46.6054,15.241 46.6054,15.867 C46.6054,16.492 46.4954,17.152 46.2734,17.848 C45.7234,19.38 45.5284,20.841 45.6934,22.234 C45.8594,23.622 46.1654,25.015 46.6054,26.408 C47.9264,30.862 49.0594,35.383 49.9944,39.976 C50.9324,44.569 52.0064,49.162 53.2204,53.754 C53.9914,56.957 54.6534,60.156 55.2034,63.359 C55.7574,66.558 56.4734,69.757 57.3544,72.96 C58.3464,76.579 59.3964,80.197 60.4974,83.816 C61.6014,87.434 62.5924,91.05 63.4744,94.671 C64.0254,96.62 65.1274,98.148 66.7804,99.264 C67.2224,99.683 67.6644,99.61 68.1044,99.054 C69.3204,97.523 69.9234,95.852 69.9234,94.045 C69.9234,92.93 69.9814,91.885 70.0894,90.914 C70.1994,89.94 70.2554,88.895 70.2554,87.783 C70.3654,85.973 70.4774,84.235 70.5854,82.564 C70.6974,80.893 70.6414743,79.223 70.4194,77.552 C70.0894,74.63 70.0894,71.709 70.4194,68.787 C70.6414743,66.836 70.6974,64.956 70.5854,63.149" id="Fill-1" fill="#E63946"></path>
                <path d="M105.5053,15.8667 C105.5053,15.2407 105.4493,14.5787 105.3413,13.8817 C104.6793,10.1247 103.2163,7.0267 100.9583,4.5947 C98.6963,2.1567 95.9663,1.0077 92.7703,1.1487 C91.7783,1.2847 90.8403,1.2847 89.9593,1.1487 C88.7453,0.8687 87.6443,1.0437 86.6503,1.6697 C85.6593,2.2987 84.8043,3.0957 84.0883,4.0707 C83.3683,5.0447 82.8183,6.1237 82.4333,7.3067 C82.0473,8.4877 81.9103,9.6377 82.0203,10.7527 C82.1283,11.1697 82.1863,11.7237 82.1863,12.4207 C81.8543,15.4807 81.7733,18.5457 81.9373,21.6057 C82.1033,24.6667 82.1283,27.7297 82.0203,30.7917 C81.9103,33.9937 81.8543,37.2267 81.8543,40.5007 C81.8543,43.7677 81.9643,47.0047 82.1863,50.2067 C82.2943,51.4577 82.3233,52.7127 82.2693,53.9637 C82.2113,55.2187 82.1283,56.4697 82.0203,57.7207 C81.7983,59.5297 81.6323,61.3397 81.5243,63.1487 C81.4123,64.9557 81.4682257,66.8357 81.6903,68.7867 C82.0203,71.7087 82.0203,74.6307 81.6903,77.5527 C81.4682257,79.2227 81.4123,80.8927 81.5243,82.5637 C81.6323,84.2347 81.7443,85.9727 81.8543,87.7827 C81.8543,88.8947 81.9103,89.9397 82.0203,90.9137 C82.1283,91.8857 82.1863,92.9297 82.1863,94.0457 C82.1863,95.8517 82.7903,97.5227 84.0053,99.0547 C84.4453,99.6097 84.8873,99.6827 85.3293,99.2637 C86.9823,98.1477 88.0843,96.6197 88.6353,94.6717 C89.5173,91.0507 90.5083,87.4337 91.6123,83.8157 C92.7133,80.1967 93.7633,76.5787 94.7553,72.9597 C95.6373,69.7577 96.3523,66.5577 96.9063,63.3587 C97.4563,60.1557 98.1183,56.9567 98.8893,53.7547 C100.1033,49.1617 101.1773,44.5687 102.1153,39.9757 C103.0513,35.3837 104.1843,30.8617 105.5053,26.4077 C105.9443,25.0147 106.2503,23.6217 106.4163,22.2337 C106.5823,20.8417 106.3863,19.3807 105.8373,17.8477 C105.6153,17.1517 105.5053,16.4917 105.5053,15.8667" id="Fill-3" fill="#E63946"></path>
                <path d="M46.083,93.521 C45.924,93.361 45.79,93.177 45.686,92.963 C45.26,91.797 44.81,90.709 44.332,89.699 C43.855,88.693 43.457,87.605 43.138,86.437 C42.924,85.696 42.686,84.952 42.422,84.208 C42.156,83.466 41.81,82.775 41.387,82.138 C40.855,81.29 40.405,80.416 40.034,79.512 C39.661,78.612 39.371,77.682 39.159,76.727 C39.052,76.197 38.892,75.691 38.682,75.214 C38.467,74.737 38.256,74.234 38.045,73.703 C37.301,72.109 36.584,70.546 35.895,69.006 C35.205,67.469 34.646,65.798 34.224,63.991 C33.692,61.551 33.03,59.244 32.235,57.067 C31.438,54.893 30.404,52.796 29.13,50.78 C27.539,48.551 26.688,46.217 26.583,43.776 C26.37,42.291 26.528,40.859 27.061,39.477 C27.591,38.099 28.279,36.72 29.13,35.338 C29.767,34.28 30.376,33.19 30.961,32.076 C31.543,30.961 32.048,29.767 32.473,28.494 C32.685,27.964 32.792,27.433 32.792,26.903 C32.792,26.372 32.895,25.842 33.11,25.309 C33.958,22.444 34.622,19.527 35.1,16.554 C35.577,13.585 35.92,10.56 36.134,7.482 C36.134,7.162 36.159,6.844 36.214,6.527 C36.266,6.208 36.239,5.836 36.134,5.411 C36.134,5.093 36.107,4.774 36.054,4.457 C36,4.139 35.976,3.82 35.976,3.502 C35.55,1.488 34.488,0.532 32.792,0.637 C31.941,0.637 31.145,0.583 30.404,0.477 C29.66,0.372 28.864,0.425 28.016,0.637 C26.528,0.851 25.521,1.194 24.991,1.671 C24.459,2.149 24.088,2.919 23.877,3.98 C23.877,4.193 23.85,4.405 23.797,4.617 C23.743,4.831 23.718,5.042 23.718,5.253 C23.822,6.421 23.77,7.561 23.559,8.675 C23.345,9.79 23.24,10.932 23.24,12.097 C23.026,14.54 22.549,16.768 21.808,18.785 C21.063,20.801 20.348,22.763 19.659,24.672 C18.967,26.583 18.358,28.547 17.828,30.562 C17.615,31.199 17.296,31.835 16.873,32.473 C16.448,33.11 15.864,33.429 15.122,33.429 C14.378,33.429 13.901,33.086 13.689,32.393 C13.476,31.705 13.264,31.095 13.052,30.562 C12.946,30.458 12.894,30.245 12.894,29.927 C12.787,28.759 12.707,27.54 12.654,26.265 C12.6,24.992 12.468,23.772 12.257,22.604 C12.257,22.075 12.309,21.704 12.416,21.49 C12.734,19.898 12.839,18.305 12.734,16.713 C12.627,15.123 12.627,13.532 12.734,11.938 C12.734,10.984 12.679,10.003 12.575,8.993 C12.468,7.987 12.52,7.004 12.734,6.048 C12.839,5.093 12.734,3.98 12.416,2.706 C12.097,1.329 11.301,0.532 10.027,0.318 C8.966,0.106 7.931,0 6.924,0 C5.915,0 4.934,0.106 3.979,0.318 C2.598,0.532 1.644,0.931 1.114,1.511 C0.582,2.097 0.211,3.08 -7.10542736e-15,4.457 L-7.10542736e-15,5.89 L-7.10542736e-15,10.029 C-7.10542736e-15,11.409 0.104,12.789 0.318,14.167 C0.529,15.865 0.582,17.51 0.477,19.102 C0.37,20.693 0.477,22.287 0.795,23.877 C0.9,24.514 0.9,25.097 0.795,25.628 C0.477,26.796 0.529,28.123 0.954,29.608 C1.059,30.245 1.139,30.856 1.194,31.439 C1.246,32.024 1.219,32.632 1.114,33.269 C0.9,34.438 0.795,35.606 0.795,36.772 L0.795,40.274 L0.795,42.025 C0.795,42.662 0.74,43.245 0.637,43.776 C0.422,44.944 0.343,46.058 0.397,47.118 C0.45,48.18 0.477,49.294 0.477,50.46 C0.582,52.479 0.715,54.496 0.875,56.51 C1.034,58.527 1.114,60.597 1.114,62.717 C1.114,65.584 1.139,68.423 1.194,71.235 C1.246,74.048 1.219,76.885 1.114,79.75 C1.007,80.495 0.9,81.211 0.795,81.901 C0.688,82.591 0.688,83.308 0.795,84.049 C1.219,87.551 1.219,91.053 0.795,94.555 C0.688,95.509 0.795,96.625 1.114,97.897 C1.432,99.068 2.173,99.808 3.342,100.127 C4.509,100.553 5.675,100.657 6.844,100.445 C8.011,100.233 9.177,100.181 10.346,100.285 C10.876,100.285 11.247,100.022 11.461,99.491 C11.99,98.642 12.389,97.82 12.654,97.023 C12.918,96.226 12.946,95.352 12.734,94.395 C12.52,93.441 12.389,92.487 12.337,91.53 C12.282,90.576 12.361,89.568 12.575,88.505 C13.104,87.022 13.104,85.483 12.575,83.889 C12.15,82.723 11.963,81.557 12.018,80.387 C12.07,79.221 12.202,78.055 12.416,76.885 C12.52,75.931 12.6,74.976 12.654,74.02 C12.707,73.066 12.734,72.057 12.734,70.995 C12.627,69.512 12.547,68.026 12.496,66.539 C12.44,65.053 12.52,63.568 12.734,62.083 C12.734,61.551 12.787,61.046 12.894,60.569 C12.998,60.091 12.998,59.588 12.894,59.057 C12.894,58.42 12.973,57.998 13.132,57.784 C13.291,57.572 13.794,57.413 14.645,57.306 C14.963,57.306 15.307,57.201 15.679,56.987 C16.049,56.776 16.396,56.883 16.714,57.306 C17.136,57.837 17.59,58.289 18.067,58.658 C18.544,59.032 18.887,59.535 19.101,60.171 C20.268,62.4 21.302,64.708 22.206,67.096 C23.106,69.484 23.929,71.9 24.672,74.339 C25.31,76.144 26.105,77.895 27.061,79.592 C27.909,81.081 28.733,82.615 29.528,84.208 C30.324,85.8 30.986,87.5 31.518,89.302 C31.941,90.79 32.367,92.247 32.792,93.68 C33.214,95.112 33.799,96.572 34.543,98.057 C35.283,99.544 36.294,100.181 37.566,99.967 C38.733,99.967 39.875,100.047 40.99,100.206 C42.104,100.365 43.243,100.445 44.412,100.445 C44.835,100.341 45.208,100.261 45.526,100.206 C45.845,100.154 46.108,100.022 46.322,99.808 C46.958,99.279 47.302,98.35 47.357,97.023 C47.409,95.697 47.17,94.714 46.64,94.078 C46.426,93.866 46.243,93.68 46.083,93.521" id="Fill-5" fill="#011627"></path>
                <path d="M162.6665,76.1705 C162.6665,74.8425 162.5595,73.5425 162.3485,72.2695 C162.1345,71.1035 162.1345,69.9375 162.3485,68.7675 C162.3485,68.2375 162.3735,67.7065 162.4275,67.1755 C162.4795,66.6455 162.4525,66.1155 162.3485,65.5845 C162.1345,63.4625 162.0295,61.3915 162.0295,59.3745 L162.0295,53.1675 C162.0295,50.3025 161.9755,47.4375 161.8705,44.5695 C161.7645,41.7045 161.7645,38.8405 161.8705,35.9755 C161.9755,33.5345 162.0025,31.0955 161.9505,28.6535 C161.8955,26.2135 161.8705,23.7725 161.8705,21.3295 C161.8705,20.4815 161.8155,19.6355 161.7105,18.7845 C161.6045,17.9365 161.5525,17.0875 161.5525,16.2365 C161.6575,15.0705 161.6845,13.8495 161.6325,12.5745 C161.5775,11.3015 161.5525,10.0835 161.5525,8.9125 C161.7645,7.9585 161.8435,7.0295 161.7915,6.1275 C161.7365,5.2275 161.6575,4.2975 161.5525,3.3425 C161.5525,1.8575 160.6495,0.9545 158.8465,0.6375 C157.7835,0.4255 156.7765,0.4515 155.8225,0.7155 C154.8665,0.9825 153.8565,1.0085 152.7975,0.7945 C152.5835,0.6915 152.3725,0.7425 152.1605,0.9545 C151.5235,1.4875 150.9395,2.0175 150.4095,2.5455 C149.8765,3.0795 149.5065,3.7685 149.2955,4.6165 C149.0815,5.9955 149.0015,7.3505 149.0565,8.6755 C149.1085,10.0035 149.1355,11.3575 149.1355,12.7345 C149.0285,14.2225 149.1355,15.6795 149.4545,17.1105 C149.7725,18.5445 149.8255,20.0045 149.6135,21.4895 C149.3995,22.5525 149.3995,23.5585 149.6135,24.5145 C149.8255,25.4695 149.9325,26.4255 149.9325,27.3795 L149.9325,30.9615 C149.9325,32.1815 149.8765,33.3755 149.7725,34.5435 C149.5585,36.3485 149.5855,38.1505 149.8525,39.9535 C150.1155,41.7615 150.1955,43.5645 150.0905,45.3665 C149.9835,46.7465 150.0115,48.1005 150.1705,49.4265 C150.3295,50.7535 150.1445,52.0535 149.6135,53.3275 C149.3995,53.7525 149.2405,54.0985 149.1355,54.3615 C149.0285,54.6275 148.7095,54.8135 148.1815,54.9185 C147.5445,55.0245 147.0125,54.7065 146.5885,53.9625 C146.1635,53.4335 145.7665,52.8765 145.3955,52.2905 C145.0225,51.7105 144.6795,51.0455 144.3605,50.3025 C143.8285,49.1345 143.4055,47.9415 143.0865,46.7205 C142.7685,45.5005 142.4505,44.2525 142.1315,42.9795 C141.5995,41.1765 140.9635,39.5055 140.2215,37.9655 C139.4785,36.4285 138.7345,34.8095 137.9935,33.1095 C136.5055,29.7155 135.0735,26.2915 133.6945,22.8435 C132.3155,19.3955 130.9345,15.9175 129.5565,12.4145 C129.0235,11.2495 128.5215,10.0285 128.0445,8.7555 C127.5665,7.4825 127.0615,6.2075 126.5325,4.9345 C125.7885,3.3425 124.8335,2.1495 123.6665,1.3525 C122.4985,0.5575 121.0125,0.4255 119.2095,0.9545 C118.8915,1.0635 118.5725,1.0885 118.2545,1.0345 C117.9365,0.9825 117.6705,0.9545 117.4585,0.9545 C116.5035,0.8515 115.8665,0.8745 115.5475,1.0345 C115.2295,1.1935 114.8565,1.6975 114.4335,2.5455 C114.2205,3.0795 114.1155,3.8735 114.1155,4.9345 L114.1155,15.9175 C114.1155,16.6615 114.0605,17.3515 113.9565,17.9875 C113.8495,18.6245 113.8495,19.3155 113.9565,20.0565 C114.1675,21.5435 114.2745,23.0575 114.2745,24.5945 L114.2745,29.2905 C114.1675,30.1415 114.0885,30.9095 114.0355,31.5985 C113.9815,32.2895 114.0605,33.0585 114.2745,33.9065 C114.2745,34.3315 114.3265,34.7295 114.4335,35.1005 C114.5385,35.4725 114.5935,35.8715 114.5935,36.2945 C114.9115,38.0995 115.0435,39.9535 114.9905,41.8645 C114.9355,43.7755 114.9115,45.6325 114.9115,47.4375 C114.9115,50.1965 114.8835,52.8765 114.8325,55.4765 C114.7765,58.0775 114.8045,60.7025 114.9115,63.3545 C115.0155,65.1615 114.9905,66.9125 114.8325,68.6075 C114.6725,70.3065 114.6975,72.0575 114.9115,73.8595 C115.0155,75.3485 115.1225,76.8335 115.2295,78.3185 C115.3335,79.8065 115.2825,81.2895 115.0705,82.7745 C115.0705,83.2005 115.1225,83.5205 115.2295,83.7325 C115.3335,84.6865 115.3335,85.6405 115.2295,86.5965 C115.0155,88.2955 114.9905,89.9675 115.1505,91.6095 C115.3095,93.2575 115.3895,94.9285 115.3895,96.6255 C115.4935,98.2165 116.3445,99.2275 117.9365,99.6485 C118.7845,99.9675 119.6595,100.1815 120.5625,100.2845 C121.4625,100.3935 122.3935,100.4985 123.3485,100.6055 C124.5145,100.7085 125.4175,100.4445 126.0535,99.8085 C126.6905,99.1715 127.0095,98.2715 127.0095,97.1035 C127.0095,96.2545 126.9825,95.4055 126.9295,94.5555 C126.8755,93.7065 126.8505,92.8575 126.8505,92.0075 C127.0615,89.2505 127.1685,86.5425 127.1685,83.8895 L127.1685,75.7715 C127.1685,73.7565 127.1415,71.7665 127.0895,69.8015 C127.0345,67.8385 127.0095,65.8505 127.0095,63.8335 L127.0095,62.2395 C127.3275,59.5885 127.3275,56.8835 127.0095,54.1215 C126.9025,53.0625 126.8755,52.0015 126.9295,50.9395 C126.9825,49.8795 127.1685,48.8685 127.4865,47.9145 C127.9095,46.5365 128.7055,46.3775 129.8745,47.4375 C130.1925,47.8625 130.5115,48.3125 130.8295,48.7885 C131.1485,49.2665 131.4115,49.7715 131.6255,50.3025 C132.4745,52.4275 133.3225,54.5195 134.1735,56.5895 C135.0205,58.6575 135.8695,60.7565 136.7195,62.8765 C137.2495,64.1505 137.7785,65.4525 138.3115,66.7785 C138.8405,68.1065 139.4265,69.4035 140.0625,70.6775 C140.9105,72.1655 141.6545,73.6225 142.2915,75.0545 C142.9285,76.4875 143.4575,78.0555 143.8825,79.7505 C143.9875,80.0695 144.0665,80.4155 144.1225,80.7865 C144.1735,81.1575 144.3055,81.4495 144.5195,81.6605 C145.0495,82.4055 145.4475,83.1495 145.7135,83.8895 C145.9765,84.6345 146.2705,85.4285 146.5885,86.2765 C147.2255,87.8705 147.8075,89.5165 148.3395,91.2125 C148.8705,92.9115 149.5585,94.5035 150.4095,95.9885 C151.8955,99.0675 154.4415,100.6055 158.0505,100.6055 C159.5345,100.6055 160.7015,100.2325 161.5525,99.4905 C162.4005,98.7475 162.8265,97.7395 162.8265,96.4655 C162.8265,95.5095 162.8515,94.5305 162.9055,93.5215 C162.9585,92.5125 162.8775,91.5295 162.6665,90.5755 C162.4525,89.3025 162.4525,88.0275 162.6665,86.7545 C162.6665,85.5885 162.7705,84.4745 162.9845,83.4115 C163.1965,82.3525 163.1965,81.2375 162.9845,80.0695 C162.7705,78.7955 162.6665,77.4985 162.6665,76.1705" id="Fill-8" fill="#011627"></path>
                <path d="M177.0737,3.8941 C170.9797,6.3951 174.4637,72.0521 175.4357,99.5351 C175.5427,102.5401 181.6707,103.2921 182.7927,100.5511 L210.6337,26.6751 C211.8607,23.6781 211.9537,20.2771 210.8807,17.2091 C207.9047,8.7021 201.7517,-6.2369 177.0737,3.8941" id="Fill-10" fill="#011627"></path>
                <path d="M329.2226,3.8941 C323.1286,6.3951 326.6136,72.0521 327.5856,99.5351 C327.6916,102.5401 333.8206,103.2921 334.9426,100.5511 L362.7836,26.6751 C364.0096,23.6781 364.1026,20.2771 363.0306,17.2091 C360.0536,8.7021 353.9016,-6.2369 329.2226,3.8941" id="Fill-12" fill="#011627"></path>
                <path d="M265.3183,93.3609 C264.7843,92.2469 264.3613,91.0529 264.0443,89.7789 C263.6193,87.9759 263.1413,86.2249 262.6103,84.5259 C262.0793,82.8319 261.2303,81.2379 260.0643,79.7509 C259.5313,79.1129 259.2143,78.4239 259.1083,77.6819 C258.0463,74.3929 256.8263,71.2089 255.4493,68.1309 C254.0673,65.0529 252.9533,61.8169 252.1043,58.4209 C251.7873,57.2549 251.6783,56.1929 251.7873,55.2359 C251.8903,54.2819 252.3683,53.3819 253.2183,52.5309 L254.4923,51.2569 C256.2953,49.6659 257.6483,47.7829 258.5513,45.6069 C259.4523,43.4319 260.2763,41.2839 261.0193,39.1599 C261.5473,37.6739 261.8153,36.1339 261.8153,34.5439 C261.8153,32.9499 261.8683,31.4129 261.9733,29.9269 C262.1853,28.4419 262.2373,27.0079 262.1323,25.6289 C262.0273,24.2519 262.0273,22.8179 262.1323,21.3299 C262.1323,20.8009 262.0793,20.2439 261.9733,19.6589 C261.8683,19.0759 261.7083,18.5189 261.4963,17.9879 C261.0713,16.7139 260.5133,15.4959 259.8253,14.3259 C259.1343,13.1599 258.5773,11.9379 258.1543,10.6639 C258.1543,10.5599 257.9943,10.3459 257.6763,10.0289 C256.6143,9.3919 255.7123,8.6499 254.9693,7.7989 C254.2263,6.9509 253.3783,6.2079 252.4233,5.5709 C250.2993,4.0859 248.1253,2.8399 245.8973,1.8319 C243.6693,0.8229 241.1733,0.4249 238.4163,0.6369 L237.7793,0.6369 C235.7593,0.2149 233.7713,0.0539 231.8083,0.1579 C229.8443,0.2659 227.8013,0.4249 225.6793,0.6369 C223.9823,0.9549 222.7093,1.6979 221.8603,2.8659 C221.0093,4.1389 220.6373,5.2539 220.7463,6.2079 C220.7463,7.6949 220.7983,9.1009 220.9053,10.4259 C221.0093,11.7549 220.9583,13.1599 220.7463,14.6449 C220.5323,16.1329 220.4263,17.5899 220.4263,19.0219 L220.4263,23.4009 C220.4263,25.0969 220.5063,26.7709 220.6663,28.4139 C220.8263,30.0609 220.9053,31.7319 220.9053,33.4289 C220.7983,36.1889 220.6893,38.8959 220.5863,41.5479 C220.4803,44.2009 220.5323,46.9069 220.7463,49.6659 C220.8493,52.2119 220.8493,54.7069 220.7463,57.1469 C220.6373,58.2099 220.6663,59.2709 220.8263,60.3319 C220.9833,61.3909 221.0633,62.4539 221.0633,63.5139 C220.9583,65.1049 220.8783,66.7239 220.8263,68.3699 C220.7693,70.0149 220.8493,71.6879 221.0633,73.3829 C221.2753,74.0199 221.2753,74.6049 221.0633,75.1339 C220.8493,75.6679 220.7693,76.1439 220.8263,76.5679 C220.8783,76.9929 220.9053,77.4699 220.9053,77.9999 C221.1153,79.0609 221.2493,80.0979 221.3023,81.1039 C221.3543,82.1149 221.2223,83.1489 220.9053,84.2089 C220.7983,84.6339 220.7983,85.0589 220.9053,85.4829 C221.1153,86.7549 221.1953,88.0559 221.1433,89.3819 C221.0893,90.7099 221.0633,92.0069 221.0633,93.2809 L221.0633,97.7399 C221.0633,99.0109 221.5943,99.6479 222.6573,99.6479 C223.8223,99.8619 224.9083,100.0739 225.9193,100.2849 C226.9273,100.4989 228.0133,100.4989 229.1813,100.2849 C230.0303,100.0739 230.7983,99.7279 231.4893,99.2509 C232.1803,98.7739 232.5253,98.1109 232.5253,97.2599 C232.6303,96.3059 232.7633,95.3519 232.9233,94.3949 C233.0833,93.4409 233.0543,92.4869 232.8423,91.5299 C232.7373,90.8929 232.6833,90.2569 232.6833,89.6219 C232.6833,88.9849 232.6303,88.3469 232.5253,87.7109 L232.5253,70.8379 L232.6833,70.8379 C232.6833,69.7779 232.7093,68.7429 232.7633,67.7329 C232.8153,66.7239 232.7893,65.7419 232.6833,64.7879 C232.4693,63.6219 232.4983,62.5589 232.7633,61.6029 C233.0263,60.6489 233.2663,59.6399 233.4803,58.5809 C233.9033,57.3059 234.7003,56.5639 235.8683,56.3499 C236.3973,56.2469 236.8223,56.4059 237.1413,56.8299 C237.4593,57.2549 237.7793,57.6239 238.0963,57.9439 C238.2023,58.0489 238.2563,58.1569 238.2563,58.2609 C238.8923,59.5349 239.5023,60.8079 240.0873,62.0829 C240.6683,63.3539 241.1733,64.7359 241.5983,66.2209 C242.0213,68.0259 242.6583,69.7779 243.5083,71.4739 C245.3113,75.9309 247.1153,80.1749 248.9223,84.2089 C249.5583,85.6959 250.1393,87.2339 250.6733,88.8249 C251.2023,90.4159 251.7303,92.0069 252.2633,93.6009 C252.6873,94.5549 253.1123,95.5089 253.5383,96.4649 C253.9613,97.4209 254.5973,98.2709 255.4493,99.0109 C255.9773,99.7569 256.6143,100.1279 257.3573,100.1279 C258.5253,99.9159 259.6393,99.9159 260.7023,100.1279 C261.7593,100.3409 262.8743,100.5529 264.0443,100.7619 C264.7843,100.9739 265.3413,100.867937 265.7143,100.4449 C266.0873,100.0219 266.4833,99.5959 266.9093,99.1719 C267.5463,98.5339 267.5463,97.7399 266.9093,96.7829 C266.3763,95.6169 265.8463,94.4749 265.3183,93.3609" id="Fill-14" fill="#011627"></path>
                <path d="M315.3251,92.0074 C315.3251,90.8414 315.2181,90.0724 315.0061,89.6984 C314.7921,89.3294 314.1031,88.8784 312.9371,88.3474 C311.9811,88.0284 310.8671,87.9764 309.5931,88.1884 L308.2411,88.1884 C307.8681,88.1884 307.4171,88.1364 306.8871,88.0284 C306.0371,87.8174 305.2171,87.7104 304.4201,87.7104 L301.9521,87.7104 L298.6891,87.7104 C297.6791,87.7104 296.6451,87.7644 295.5851,87.8704 C294.0971,87.8704 292.4541,87.6054 290.6511,87.0734 C289.2691,86.7544 288.1551,85.8004 287.3061,84.2084 C286.7761,83.0404 286.4561,81.8494 286.3521,80.6264 C286.2471,79.4064 286.2471,78.1584 286.3521,76.8854 C286.4561,75.8264 286.4561,74.7904 286.3521,73.7824 C286.2471,72.7744 286.1931,71.7914 286.1931,70.8374 L286.1931,66.2994 C286.1931,64.7624 286.2471,63.2504 286.3521,61.7634 C286.3521,61.4454 286.4041,61.2344 286.5131,61.1254 C287.8891,57.9444 290.1181,56.1934 293.1971,55.8724 C293.7281,55.7694 294.1781,55.7404 294.5511,55.7934 C294.9221,55.8494 295.3191,55.9294 295.7451,56.0324 C296.6991,56.1384 297.6551,56.1384 298.6091,56.0324 C299.5641,55.9294 300.5201,55.8724 301.4741,55.8724 C302.2181,55.9814 302.8291,55.7694 303.3051,55.2364 C303.7831,54.7064 304.1261,54.0184 304.3401,53.1674 C304.6591,52.0014 304.6831,50.8084 304.4201,49.5854 C304.1541,48.3654 304.0741,47.1714 304.1821,46.0034 C304.2861,45.2634 303.9151,44.7854 303.0681,44.5694 C302.2181,44.2524 301.3951,43.9354 300.6001,43.6154 C299.8041,43.2984 298.9291,43.2984 297.9721,43.6154 C297.4411,43.8294 296.9111,43.8294 296.3821,43.6154 C295.8481,43.4034 295.3191,43.3244 294.7901,43.3784 C294.2571,43.4324 293.7281,43.5124 293.1971,43.6154 C292.3461,43.8294 291.5261,43.8564 290.7311,43.6954 C289.9341,43.5354 289.1121,43.3524 288.2631,43.1384 C287.8381,43.1384 287.5181,42.9274 287.3061,42.5014 C286.9891,41.9734 286.6961,41.4154 286.4321,40.8304 C286.1671,40.2474 286.0351,39.6364 286.0351,38.9994 C285.9281,37.1964 285.8991,35.4454 285.9551,33.7464 C286.0071,32.0494 285.9281,30.2984 285.7161,28.4934 C285.6101,26.6914 285.5821,24.9654 285.6361,23.3204 C285.6871,21.6754 285.7671,19.9524 285.8761,18.1474 C286.0871,15.8134 287.0941,14.3254 288.9001,13.6894 C289.9581,13.3714 290.9951,13.1084 292.0031,12.8944 C293.0121,12.6834 294.0971,12.6834 295.2671,12.8944 C296.4331,13.0004 297.6281,13.1084 298.8491,13.2114 C300.0671,13.3194 301.2611,13.2664 302.4311,13.0524 C303.5971,12.9484 304.7911,12.9204 306.0111,12.9724 C307.2311,13.0284 308.4251,13.0524 309.5931,13.0524 C311.5041,13.0524 313.2011,12.5234 314.6881,11.4604 C315.1091,11.2494 315.3251,10.8804 315.3251,10.3464 C315.1091,9.4984 315.1091,8.7034 315.3251,7.9584 C315.5351,7.2184 315.5891,6.4214 315.4831,5.5704 C315.4831,4.8304 315.4291,4.1134 315.3251,3.4224 C315.2181,2.7344 314.7921,2.1764 314.0521,1.7514 C313.4151,1.5394 312.7771,1.3004 312.1401,1.0344 C311.5041,0.7714 310.8671,0.6374 310.2301,0.6374 C308.1051,0.6374 305.9571,0.6114 303.7831,0.5574 C301.6061,0.5054 299.4581,0.5834 297.3361,0.7944 C295.2121,1.0084 293.0391,1.0884 290.8091,1.0344 C288.5811,0.9834 286.4041,0.8514 284.2841,0.6374 C283.3281,0.4254 282.3741,0.3984 281.4171,0.5574 C280.4631,0.7154 279.5091,0.6914 278.5521,0.4774 C278.4461,0.4774 278.1801,0.5834 277.7581,0.7944 C274.5731,2.0694 273.1931,4.2974 273.6181,7.4824 C273.7221,8.8614 273.7221,10.1874 273.6181,11.4604 C273.4051,12.6314 273.2991,13.7694 273.2991,14.8834 C273.2991,15.9964 273.4051,17.1394 273.6181,18.3054 C273.7221,19.1554 273.7221,19.9524 273.6181,20.6934 C273.5111,21.4384 273.5621,22.2324 273.7781,23.0804 C273.9871,23.9314 274.0961,24.7284 274.0961,25.4694 L274.0961,27.8574 C274.0961,28.2814 274.0671,28.6794 274.0151,29.0504 C273.9621,29.4244 273.9351,29.7674 273.9351,30.0844 C274.0421,31.8924 274.1221,33.6144 274.1761,35.2584 C274.2271,36.9054 274.0961,38.5764 273.7781,40.2744 L273.7781,40.7504 C273.9871,42.4494 274.0151,44.0934 273.8561,45.6864 C273.6981,47.2784 273.7221,48.8684 273.9351,50.4604 C274.0421,50.5684 274.0421,50.6194 273.9351,50.6194 C273.8301,51.8944 273.8301,53.1424 273.9351,54.3614 C274.0421,55.5814 273.9871,56.7764 273.7781,57.9444 C273.5621,58.4744 273.5911,59.0054 273.8561,59.5344 C274.1221,60.0664 274.2561,60.5974 274.2561,61.1254 C274.2561,62.6134 274.2271,64.0994 274.1761,65.5844 C274.1221,67.0704 274.0961,68.5554 274.0961,70.0404 C273.9871,71.8464 273.8821,73.6764 273.7781,75.5334 C273.6701,77.3904 273.6701,79.2734 273.7781,81.1844 C273.7781,82.2454 273.8021,83.2794 273.8561,84.2884 C273.9101,85.2964 273.9351,86.3334 273.9351,87.3914 L273.9351,90.2564 C273.9351,91.2124 274.0421,92.1664 274.2561,93.1234 C274.4671,93.5484 274.4671,93.9184 274.2561,94.2374 C273.7221,96.7824 274.6251,98.5334 276.9611,99.4904 C277.5971,99.7044 278.2341,99.9154 278.8711,100.1274 C279.5091,100.3414 280.1971,100.4454 280.9401,100.4454 C281.6821,100.5534 282.3741,100.5534 283.0111,100.4454 C283.6471,100.3414 284.3361,100.2844 285.0791,100.2844 C287.8381,100.3934 290.6231,100.4214 293.4361,100.3644 C296.2481,100.3134 299.0331,100.2844 301.7951,100.2844 L301.7951,100.4454 C302.7491,100.4454 303.7031,100.4734 304.6591,100.5254 C305.6141,100.5784 306.5701,100.5534 307.5241,100.4454 C308.4781,100.4454 309.4351,100.4214 310.3891,100.3644 C311.3441,100.3134 312.2441,100.1814 313.0951,99.9674 C314.0521,99.6484 314.6881,99.2784 315.0061,98.8544 C315.3251,98.4304 315.5351,97.7394 315.6421,96.7824 C315.6421,95.9344 315.6141,95.1404 315.5621,94.3954 C315.5091,93.6544 315.4291,92.8584 315.3251,92.0074" id="Fill-16" fill="#011627"></path>
            </g>
        </g>
    </g>
</svg>