<?xml version="1.0" encoding="UTF-8"?>
<svg width="364px" height="103px" viewBox="0 0 364 103" version="1.1" xmlns="http://www.w3.org/2000/svg" xmlns:xlink="http://www.w3.org/1999/xlink">
    <!-- Generator: Sketch 63.1 (92452) - https://sketch.com -->
    <title>Group 18</title>
    <desc>Created with Sketch.</desc>
    <defs>
        <polygon id="path-1" points="0.0003 0.752 47.3642691 0.752 47.3642691 101.302945 0.0003 101.302945"></polygon>
    </defs>
    <g id="Page-1" stroke="none" stroke-width="1" fill="none" fill-rule="evenodd">
        <g id="Artboard" transform="translate(-81.000000, -95.000000)">
            <g id="Group-18" transform="translate(81.000000, 94.000000)">
                <path d="M70.5857,64.1485 C70.4777,62.3385 70.3117,60.5295 70.0897,58.7205 C69.9817,57.4685 69.8987,56.2175 69.8407,54.9625 C69.7867,53.7115 69.8157,52.4575 69.9237,51.2065 C70.1457,48.0035 70.2557,44.7675 70.2557,41.5005 C70.2557,38.2265 70.1997,34.9935 70.0897,31.7915 C69.9817,28.7295 70.0067,25.6665 70.1727,22.6055 C70.3367,19.5445 70.2557,16.4805 69.9237,13.4195 C69.9237,12.7235 69.9817,12.1695 70.0897,11.7525 C70.1997,10.6365 70.0637,9.4875 69.6767,8.3065 C69.2917,7.1235 68.7417,6.0445 68.0217,5.0705 C67.3057,4.0955 66.4517,3.2975 65.4597,2.6695 C64.4657,2.0435 63.3647,1.8685 62.1507,2.1485 C61.2697,2.2845 60.3317,2.2845 59.3397,2.1485 C56.1437,2.0065 53.4137,3.1565 51.1517,5.5935 C48.8937,8.0265 47.4307,11.1245 46.7687,14.8805 C46.6617,15.5785 46.6057,16.2405 46.6057,16.8665 C46.6057,17.4915 46.4957,18.1515 46.2737,18.8475 C45.7237,20.3795 45.5287,21.8405 45.6937,23.2335 C45.8597,24.6215 46.1657,26.0145 46.6057,27.4075 C47.9267,31.8615 49.0597,36.3825 49.9947,40.9755 C50.9327,45.5685 52.0067,50.1615 53.2207,54.7535 C53.9917,57.9565 54.6537,61.1555 55.2037,64.3585 C55.7577,67.5575 56.4737,70.7565 57.3547,73.9595 C58.3467,77.5785 59.3967,81.1965 60.4977,84.8155 C61.6017,88.4335 62.5927,92.0495 63.4747,95.6705 C64.0257,97.6195 65.1277,99.1475 66.7807,100.2635 C67.2227,100.6825 67.6647,100.6095 68.1047,100.0535 C69.3207,98.5225 69.9237,96.8515 69.9237,95.0445 C69.9237,93.9295 69.9817,92.8845 70.0897,91.9135 C70.1997,90.9395 70.2557,89.8945 70.2557,88.7825 C70.3657,86.9725 70.4777,85.2345 70.5857,83.5635 C70.6977,81.8925 70.6417743,80.2225 70.4197,78.5515 C70.0897,75.6295 70.0897,72.7085 70.4197,69.7865 C70.6417743,67.8355 70.6977,65.9555 70.5857,64.1485" id="Fill-1" fill="#E63946"></path>
                <path d="M105.5056,16.8662 C105.5056,16.2402 105.4496,15.5782 105.3416,14.8812 C104.6796,11.1242 103.2166,8.0262 100.9586,5.5942 C98.6966,3.1562 95.9666,2.0072 92.7706,2.1482 C91.7786,2.2842 90.8406,2.2842 89.9596,2.1482 C88.7456,1.8682 87.6446,2.0432 86.6506,2.6692 C85.6596,3.2982 84.8046,4.0952 84.0886,5.0702 C83.3686,6.0442 82.8186,7.1232 82.4336,8.3062 C82.0476,9.4872 81.9106,10.6372 82.0206,11.7522 C82.1286,12.1692 82.1866,12.7232 82.1866,13.4202 C81.8546,16.4802 81.7736,19.5452 81.9376,22.6052 C82.1036,25.6662 82.1286,28.7292 82.0206,31.7912 C81.9106,34.9932 81.8546,38.2262 81.8546,41.5002 C81.8546,44.7672 81.9646,48.0042 82.1866,51.2062 C82.2946,52.4572 82.3236,53.7122 82.2696,54.9632 C82.2116,56.2182 82.1286,57.4692 82.0206,58.7202 C81.7986,60.5292 81.6326,62.3392 81.5246,64.1482 C81.4126,65.9552 81.4685257,67.8352 81.6906,69.7862 C82.0206,72.7082 82.0206,75.6302 81.6906,78.5522 C81.4685257,80.2222 81.4126,81.8922 81.5246,83.5632 C81.6326,85.2342 81.7446,86.9722 81.8546,88.7822 C81.8546,89.8942 81.9106,90.9392 82.0206,91.9132 C82.1286,92.8852 82.1866,93.9292 82.1866,95.0452 C82.1866,96.8512 82.7906,98.5222 84.0056,100.0542 C84.4456,100.6092 84.8876,100.6822 85.3296,100.2632 C86.9826,99.1472 88.0846,97.6192 88.6356,95.6712 C89.5176,92.0502 90.5086,88.4332 91.6126,84.8152 C92.7136,81.1962 93.7636,77.5782 94.7556,73.9592 C95.6376,70.7572 96.3526,67.5572 96.9066,64.3582 C97.4566,61.1552 98.1186,57.9562 98.8896,54.7542 C100.1036,50.1612 101.1776,45.5682 102.1156,40.9752 C103.0516,36.3832 104.1846,31.8612 105.5056,27.4072 C105.9446,26.0142 106.2506,24.6212 106.4166,23.2332 C106.5826,21.8412 106.3866,20.3802 105.8376,18.8472 C105.6156,18.1512 105.5056,17.4912 105.5056,16.8662" id="Fill-3" fill="#E63946"></path>
                <g id="Group-7" transform="translate(0.000000, 0.248000)">
                    <mask id="mask-2" fill="white">
                        <use xlink:href="#path-1"></use>
                    </mask>
                    <g id="Clip-6"></g>
                    <path d="M46.0833,94.2725 C45.9243,94.1125 45.7903,93.9285 45.6863,93.7145 C45.2603,92.5485 44.8103,91.4605 44.3323,90.4505 C43.8553,89.4445 43.4573,88.3565 43.1383,87.1885 C42.9243,86.4475 42.6863,85.7035 42.4223,84.9595 C42.1563,84.2175 41.8103,83.5265 41.3873,82.8895 C40.8553,82.0415 40.4053,81.1675 40.0343,80.2635 C39.6613,79.3635 39.3713,78.4335 39.1593,77.4785 C39.0523,76.9485 38.8923,76.4425 38.6823,75.9655 C38.4673,75.4885 38.2563,74.9855 38.0453,74.4545 C37.3013,72.8605 36.5843,71.2975 35.8953,69.7575 C35.2053,68.2205 34.6463,66.5495 34.2243,64.7425 C33.6923,62.3025 33.0303,59.9955 32.2353,57.8185 C31.4383,55.6445 30.4043,53.5475 29.1303,51.5315 C27.5393,49.3025 26.6883,46.9685 26.5833,44.5275 C26.3703,43.0425 26.5283,41.6105 27.0613,40.2285 C27.5913,38.8505 28.2793,37.4715 29.1303,36.0895 C29.7673,35.0315 30.3763,33.9415 30.9613,32.8275 C31.5433,31.7125 32.0483,30.5185 32.4733,29.2455 C32.6853,28.7155 32.7923,28.1845 32.7923,27.6545 C32.7923,27.1235 32.8953,26.5935 33.1103,26.0605 C33.9583,23.1955 34.6223,20.2785 35.1003,17.3055 C35.5773,14.3365 35.9203,11.3115 36.1343,8.2335 C36.1343,7.9135 36.1593,7.5955 36.2143,7.2785 C36.2663,6.9595 36.2393,6.5875 36.1343,6.1625 C36.1343,5.8445 36.1073,5.5255 36.0543,5.2085 C36.0003,4.8905 35.9763,4.5715 35.9763,4.2535 C35.5503,2.2395 34.4883,1.2835 32.7923,1.3885 C31.9413,1.3885 31.1453,1.3345 30.4043,1.2285 C29.6603,1.1235 28.8643,1.1765 28.0163,1.3885 C26.5283,1.6025 25.5213,1.9455 24.9913,2.4225 C24.4593,2.9005 24.0883,3.6705 23.8773,4.7315 C23.8773,4.9445 23.8503,5.1565 23.7973,5.3685 C23.7433,5.5825 23.7183,5.7935 23.7183,6.0045 C23.8223,7.1725 23.7703,8.3125 23.5593,9.4265 C23.3453,10.5415 23.2403,11.6835 23.2403,12.8485 C23.0263,15.2915 22.5493,17.5195 21.8083,19.5365 C21.0633,21.5525 20.3483,23.5145 19.6593,25.4235 C18.9673,27.3345 18.3583,29.2985 17.8283,31.3135 C17.6153,31.9505 17.2963,32.5865 16.8733,33.2245 C16.4483,33.8615 15.8643,34.1805 15.1223,34.1805 C14.3783,34.1805 13.9013,33.8375 13.6893,33.1445 C13.4763,32.4565 13.2643,31.8465 13.0523,31.3135 C12.9463,31.2095 12.8943,30.9965 12.8943,30.6785 C12.7873,29.5105 12.7073,28.2915 12.6543,27.0165 C12.6003,25.7435 12.4683,24.5235 12.2573,23.3555 C12.2573,22.8265 12.3093,22.4555 12.4163,22.2415 C12.7343,20.6495 12.8393,19.0565 12.7343,17.4645 C12.6273,15.8745 12.6273,14.2835 12.7343,12.6895 C12.7343,11.7355 12.6793,10.7545 12.5753,9.7445 C12.4683,8.7385 12.5203,7.7555 12.7343,6.7995 C12.8393,5.8445 12.7343,4.7315 12.4163,3.4575 C12.0973,2.0805 11.3013,1.2835 10.0273,1.0695 C8.9663,0.8575 7.9313,0.7515 6.9243,0.7515 C5.9153,0.7515 4.9343,0.8575 3.9793,1.0695 C2.5983,1.2835 1.6443,1.6825 1.1143,2.2625 C0.5823,2.8485 0.2113,3.8315 0.0003,5.2085 L0.0003,6.6415 L0.0003,10.7805 C0.0003,12.1605 0.1043,13.5405 0.3183,14.9185 C0.5293,16.6165 0.5823,18.2615 0.4773,19.8535 C0.3703,21.4445 0.4773,23.0385 0.7953,24.6285 C0.9003,25.2655 0.9003,25.8485 0.7953,26.3795 C0.4773,27.5475 0.5293,28.8745 0.9543,30.3595 C1.0593,30.9965 1.1393,31.6075 1.1943,32.1905 C1.2463,32.7755 1.2193,33.3835 1.1143,34.0205 C0.9003,35.1895 0.7953,36.3575 0.7953,37.5235 L0.7953,41.0255 L0.7953,42.7765 C0.7953,43.4135 0.7403,43.9965 0.6373,44.5275 C0.4223,45.6955 0.3433,46.8095 0.3973,47.8695 C0.4503,48.9315 0.4773,50.0455 0.4773,51.2115 C0.5823,53.2305 0.7153,55.2475 0.8753,57.2615 C1.0343,59.2785 1.1143,61.3485 1.1143,63.4685 C1.1143,66.3355 1.1393,69.1745 1.1943,71.9865 C1.2463,74.7995 1.2193,77.6365 1.1143,80.5015 C1.0073,81.2465 0.9003,81.9625 0.7953,82.6525 C0.6883,83.3425 0.6883,84.0595 0.7953,84.8005 C1.2193,88.3025 1.2193,91.8045 0.7953,95.3065 C0.6883,96.2605 0.7953,97.3765 1.1143,98.6485 C1.4323,99.8195 2.1733,100.5595 3.3423,100.8785 C4.5093,101.3045 5.6753,101.4085 6.8443,101.1965 C8.0113,100.9845 9.1773,100.9325 10.3463,101.0365 C10.8763,101.0365 11.2473,100.7735 11.4613,100.2425 C11.9903,99.3935 12.3893,98.5715 12.6543,97.7745 C12.9183,96.9775 12.9463,96.1035 12.7343,95.1465 C12.5203,94.1925 12.3893,93.2385 12.3373,92.2815 C12.2823,91.3275 12.3613,90.3195 12.5753,89.2565 C13.1043,87.7735 13.1043,86.2345 12.5753,84.6405 C12.1503,83.4745 11.9633,82.3085 12.0183,81.1385 C12.0703,79.9725 12.2023,78.8065 12.4163,77.6365 C12.5203,76.6825 12.6003,75.7275 12.6543,74.7715 C12.7073,73.8175 12.7343,72.8085 12.7343,71.7465 C12.6273,70.2635 12.5473,68.7775 12.4963,67.2905 C12.4403,65.8045 12.5203,64.3195 12.7343,62.8345 C12.7343,62.3025 12.7873,61.7975 12.8943,61.3205 C12.9983,60.8425 12.9983,60.3395 12.8943,59.8085 C12.8943,59.1715 12.9733,58.7495 13.1323,58.5355 C13.2913,58.3235 13.7943,58.1645 14.6453,58.0575 C14.9633,58.0575 15.3073,57.9525 15.6793,57.7385 C16.0493,57.5275 16.3963,57.6345 16.7143,58.0575 C17.1363,58.5885 17.5903,59.0405 18.0673,59.4095 C18.5443,59.7835 18.8873,60.2865 19.1013,60.9225 C20.2683,63.1515 21.3023,65.4595 22.2063,67.8475 C23.1063,70.2355 23.9293,72.6515 24.6723,75.0905 C25.3103,76.8955 26.1053,78.6465 27.0613,80.3435 C27.9093,81.8325 28.7333,83.3665 29.5283,84.9595 C30.3243,86.5515 30.9863,88.2515 31.5183,90.0535 C31.9413,91.5415 32.3673,92.9985 32.7923,94.4315 C33.2143,95.8635 33.7993,97.3235 34.5433,98.8085 C35.2833,100.2955 36.2943,100.9325 37.5663,100.7185 C38.7333,100.7185 39.8753,100.7985 40.9903,100.9575 C42.1043,101.1165 43.2433,101.1965 44.4123,101.1965 C44.8353,101.0925 45.2083,101.0125 45.5263,100.9575 C45.8453,100.9055 46.1083,100.7735 46.3223,100.5595 C46.9583,100.0305 47.3023,99.1015 47.3573,97.7745 C47.4093,96.4485 47.1703,95.4655 46.6403,94.8295 C46.4263,94.6175 46.2433,94.4315 46.0833,94.2725" id="Fill-5" fill="#FDFFFC" mask="url(#mask-2)"></path>
                </g>
                <path d="M162.6668,77.17 C162.6668,75.842 162.5598,74.542 162.3488,73.269 C162.1348,72.103 162.1348,70.937 162.3488,69.767 C162.3488,69.237 162.3738,68.706 162.4278,68.175 C162.4798,67.645 162.4528,67.115 162.3488,66.584 C162.1348,64.462 162.0298,62.391 162.0298,60.374 L162.0298,54.167 C162.0298,51.302 161.9758,48.437 161.8708,45.569 C161.7648,42.704 161.7648,39.84 161.8708,36.975 C161.9758,34.534 162.0028,32.095 161.9508,29.653 C161.8958,27.213 161.8708,24.772 161.8708,22.329 C161.8708,21.481 161.8158,20.635 161.7108,19.784 C161.6048,18.936 161.5528,18.087 161.5528,17.236 C161.6578,16.07 161.6848,14.849 161.6328,13.574 C161.5778,12.301 161.5528,11.083 161.5528,9.912 C161.7648,8.958 161.8438,8.029 161.7918,7.127 C161.7368,6.227 161.6578,5.297 161.5528,4.342 C161.5528,2.857 160.6498,1.954 158.8468,1.637 C157.7838,1.425 156.7768,1.451 155.8228,1.715 C154.8668,1.982 153.8568,2.008 152.7978,1.794 C152.5838,1.691 152.3728,1.742 152.1608,1.954 C151.5238,2.487 150.9398,3.017 150.4098,3.545 C149.8768,4.079 149.5068,4.768 149.2958,5.616 C149.0818,6.995 149.0018,8.35 149.0568,9.675 C149.1088,11.003 149.1358,12.357 149.1358,13.734 C149.0288,15.222 149.1358,16.679 149.4548,18.11 C149.7728,19.544 149.8258,21.004 149.6138,22.489 C149.3998,23.552 149.3998,24.558 149.6138,25.514 C149.8258,26.469 149.9328,27.425 149.9328,28.379 L149.9328,31.961 C149.9328,33.181 149.8768,34.375 149.7728,35.543 C149.5588,37.348 149.5858,39.15 149.8528,40.953 C150.1158,42.761 150.1958,44.564 150.0908,46.366 C149.9838,47.746 150.0118,49.1 150.1708,50.426 C150.3298,51.753 150.1448,53.053 149.6138,54.327 C149.3998,54.752 149.2408,55.098 149.1358,55.361 C149.0288,55.627 148.7098,55.813 148.1818,55.918 C147.5448,56.024 147.0128,55.706 146.5888,54.962 C146.1638,54.433 145.7668,53.876 145.3958,53.29 C145.0228,52.71 144.6798,52.045 144.3608,51.302 C143.8288,50.134 143.4058,48.941 143.0868,47.72 C142.7688,46.5 142.4508,45.252 142.1318,43.979 C141.5998,42.176 140.9638,40.505 140.2218,38.965 C139.4788,37.428 138.7348,35.809 137.9938,34.109 C136.5058,30.715 135.0738,27.291 133.6948,23.843 C132.3158,20.395 130.9348,16.917 129.5568,13.414 C129.0238,12.249 128.5218,11.028 128.0448,9.755 C127.5668,8.482 127.0618,7.207 126.5328,5.934 C125.7888,4.342 124.8338,3.149 123.6668,2.352 C122.4988,1.557 121.0128,1.425 119.2098,1.954 C118.8918,2.063 118.5728,2.088 118.2548,2.034 C117.9368,1.982 117.6708,1.954 117.4588,1.954 C116.5038,1.851 115.8668,1.874 115.5478,2.034 C115.2298,2.193 114.8568,2.697 114.4338,3.545 C114.2208,4.079 114.1158,4.873 114.1158,5.934 L114.1158,16.917 C114.1158,17.661 114.0608,18.351 113.9568,18.987 C113.8498,19.624 113.8498,20.315 113.9568,21.056 C114.1678,22.543 114.2748,24.057 114.2748,25.594 L114.2748,30.29 C114.1678,31.141 114.0888,31.909 114.0358,32.598 C113.9818,33.289 114.0608,34.058 114.2748,34.906 C114.2748,35.331 114.3268,35.729 114.4338,36.1 C114.5388,36.472 114.5938,36.871 114.5938,37.294 C114.9118,39.099 115.0438,40.953 114.9908,42.864 C114.9358,44.775 114.9118,46.632 114.9118,48.437 C114.9118,51.196 114.8838,53.876 114.8328,56.476 C114.7768,59.077 114.8048,61.702 114.9118,64.354 C115.0158,66.161 114.9908,67.912 114.8328,69.607 C114.6728,71.306 114.6978,73.057 114.9118,74.859 C115.0158,76.348 115.1228,77.833 115.2298,79.318 C115.3338,80.806 115.2828,82.289 115.0708,83.774 C115.0708,84.2 115.1228,84.52 115.2298,84.732 C115.3338,85.686 115.3338,86.64 115.2298,87.596 C115.0158,89.295 114.9908,90.967 115.1508,92.609 C115.3098,94.257 115.3898,95.928 115.3898,97.625 C115.4938,99.216 116.3448,100.227 117.9368,100.648 C118.7848,100.967 119.6598,101.181 120.5628,101.284 C121.4628,101.393 122.3938,101.498 123.3488,101.605 C124.5148,101.708 125.4178,101.444 126.0538,100.808 C126.6908,100.171 127.0098,99.271 127.0098,98.103 C127.0098,97.254 126.9828,96.405 126.9298,95.555 C126.8758,94.706 126.8508,93.857 126.8508,93.007 C127.0618,90.25 127.1688,87.542 127.1688,84.889 L127.1688,76.771 C127.1688,74.756 127.1418,72.766 127.0898,70.801 C127.0348,68.838 127.0098,66.85 127.0098,64.833 L127.0098,63.239 C127.3278,60.588 127.3278,57.883 127.0098,55.121 C126.9028,54.062 126.8758,53.001 126.9298,51.939 C126.9828,50.879 127.1688,49.868 127.4868,48.914 C127.9098,47.536 128.7058,47.377 129.8748,48.437 C130.1928,48.862 130.5118,49.312 130.8298,49.788 C131.1488,50.266 131.4118,50.771 131.6258,51.302 C132.4748,53.427 133.3228,55.519 134.1738,57.589 C135.0208,59.657 135.8698,61.756 136.7198,63.876 C137.2498,65.15 137.7788,66.452 138.3118,67.778 C138.8408,69.106 139.4268,70.403 140.0628,71.677 C140.9108,73.165 141.6548,74.622 142.2918,76.054 C142.9288,77.487 143.4578,79.055 143.8828,80.75 C143.9878,81.069 144.0668,81.415 144.1228,81.786 C144.1738,82.157 144.3058,82.449 144.5198,82.66 C145.0498,83.405 145.4478,84.149 145.7138,84.889 C145.9768,85.634 146.2708,86.428 146.5888,87.276 C147.2258,88.87 147.8078,90.516 148.3398,92.212 C148.8708,93.911 149.5588,95.503 150.4098,96.988 C151.8958,100.067 154.4418,101.605 158.0508,101.605 C159.5348,101.605 160.7018,101.232 161.5528,100.49 C162.4008,99.747 162.8268,98.739 162.8268,97.465 C162.8268,96.509 162.8518,95.53 162.9058,94.521 C162.9588,93.512 162.8778,92.529 162.6668,91.575 C162.4528,90.302 162.4528,89.027 162.6668,87.754 C162.6668,86.588 162.7708,85.474 162.9848,84.411 C163.1968,83.352 163.1968,82.237 162.9848,81.069 C162.7708,79.795 162.6668,78.498 162.6668,77.17" id="Fill-8" fill="#FDFFFC"></path>
                <path d="M177.074,4.8936 C170.98,7.3946 174.464,73.0516 175.436,100.5346 C175.543,103.5396 181.671,104.2916 182.793,101.5506 L210.634,27.6746 C211.861,24.6776 211.954,21.2766 210.881,18.2086 C207.905,9.7016 201.752,-5.2374 177.074,4.8936" id="Fill-10" fill="#FDFFFC"></path>
                <path d="M329.2229,4.8936 C323.1289,7.3946 326.6139,73.0516 327.5859,100.5346 C327.6919,103.5396 333.8209,104.2916 334.9429,101.5506 L362.7839,27.6746 C364.0099,24.6776 364.1029,21.2766 363.0309,18.2086 C360.0539,9.7016 353.9019,-5.2374 329.2229,4.8936" id="Fill-12" fill="#FDFFFC"></path>
                <path d="M265.3186,94.3604 C264.7846,93.2464 264.3616,92.0524 264.0446,90.7784 C263.6196,88.9754 263.1416,87.2244 262.6106,85.5254 C262.0796,83.8314 261.2306,82.2374 260.0646,80.7504 C259.5316,80.1124 259.2146,79.4234 259.1086,78.6814 C258.0466,75.3924 256.8266,72.2084 255.4496,69.1304 C254.0676,66.0524 252.9536,62.8164 252.1046,59.4204 C251.7876,58.2544 251.6786,57.1924 251.7876,56.2354 C251.8906,55.2814 252.3686,54.3814 253.2186,53.5304 L254.4926,52.2564 C256.2956,50.6654 257.6486,48.7824 258.5516,46.6064 C259.4526,44.4314 260.2766,42.2834 261.0196,40.1594 C261.5476,38.6734 261.8156,37.1334 261.8156,35.5434 C261.8156,33.9494 261.8686,32.4124 261.9736,30.9264 C262.1856,29.4414 262.2376,28.0074 262.1326,26.6284 C262.0276,25.2514 262.0276,23.8174 262.1326,22.3294 C262.1326,21.8004 262.0796,21.2434 261.9736,20.6584 C261.8686,20.0754 261.7086,19.5184 261.4966,18.9874 C261.0716,17.7134 260.5136,16.4954 259.8256,15.3254 C259.1346,14.1594 258.5776,12.9374 258.1546,11.6634 C258.1546,11.5594 257.9946,11.3454 257.6766,11.0284 C256.6146,10.3914 255.7126,9.6494 254.9696,8.7984 C254.2266,7.9504 253.3786,7.2074 252.4236,6.5704 C250.2996,5.0854 248.1256,3.8394 245.8976,2.8314 C243.6696,1.8224 241.1736,1.4244 238.4166,1.6364 L237.7796,1.6364 C235.7596,1.2144 233.7716,1.0534 231.8086,1.1574 C229.8446,1.2654 227.8016,1.4244 225.6796,1.6364 C223.9826,1.9544 222.7096,2.6974 221.8606,3.8654 C221.0096,5.1384 220.6376,6.2534 220.7466,7.2074 C220.7466,8.6944 220.7986,10.1004 220.9056,11.4254 C221.0096,12.7544 220.9586,14.1594 220.7466,15.6444 C220.5326,17.1324 220.4266,18.5894 220.4266,20.0214 L220.4266,24.4004 C220.4266,26.0964 220.5066,27.7704 220.6666,29.4134 C220.8266,31.0604 220.9056,32.7314 220.9056,34.4284 C220.7986,37.1884 220.6896,39.8954 220.5866,42.5474 C220.4806,45.2004 220.5326,47.9064 220.7466,50.6654 C220.8496,53.2114 220.8496,55.7064 220.7466,58.1464 C220.6376,59.2094 220.6666,60.2704 220.8266,61.3314 C220.9836,62.3904 221.0636,63.4534 221.0636,64.5134 C220.9586,66.1044 220.8786,67.7234 220.8266,69.3694 C220.7696,71.0144 220.8496,72.6874 221.0636,74.3824 C221.2756,75.0194 221.2756,75.6044 221.0636,76.1334 C220.8496,76.6674 220.7696,77.1434 220.8266,77.5674 C220.8786,77.9924 220.9056,78.4694 220.9056,78.9994 C221.1156,80.0604 221.2496,81.0974 221.3026,82.1034 C221.3546,83.1144 221.2226,84.1484 220.9056,85.2084 C220.7986,85.6334 220.7986,86.0584 220.9056,86.4824 C221.1156,87.7544 221.1956,89.0554 221.1436,90.3814 C221.0896,91.7094 221.0636,93.0064 221.0636,94.2804 L221.0636,98.7394 C221.0636,100.0104 221.5946,100.6474 222.6576,100.6474 C223.8226,100.8614 224.9086,101.0734 225.9196,101.2844 C226.9276,101.4984 228.0136,101.4984 229.1816,101.2844 C230.0306,101.0734 230.7986,100.7274 231.4896,100.2504 C232.1806,99.7734 232.5256,99.1104 232.5256,98.2594 C232.6306,97.3054 232.7636,96.3514 232.9236,95.3944 C233.0836,94.4404 233.0546,93.4864 232.8426,92.5294 C232.7376,91.8924 232.6836,91.2564 232.6836,90.6214 C232.6836,89.9844 232.6306,89.3464 232.5256,88.7104 L232.5256,71.8374 L232.6836,71.8374 C232.6836,70.7774 232.7096,69.7424 232.7636,68.7324 C232.8156,67.7234 232.7896,66.7414 232.6836,65.7874 C232.4696,64.6214 232.4986,63.5584 232.7636,62.6024 C233.0266,61.6484 233.2666,60.6394 233.4806,59.5804 C233.9036,58.3054 234.7006,57.5634 235.8686,57.3494 C236.3976,57.2464 236.8226,57.4054 237.1416,57.8294 C237.4596,58.2544 237.7796,58.6234 238.0966,58.9434 C238.2026,59.0484 238.2566,59.1564 238.2566,59.2604 C238.8926,60.5344 239.5026,61.8074 240.0876,63.0824 C240.6686,64.3534 241.1736,65.7354 241.5986,67.2204 C242.0216,69.0254 242.6586,70.7774 243.5086,72.4734 C245.3116,76.9304 247.1156,81.1744 248.9226,85.2084 C249.5586,86.6954 250.1396,88.2334 250.6736,89.8244 C251.2026,91.4154 251.7306,93.0064 252.2636,94.6004 C252.6876,95.5544 253.1126,96.5084 253.5386,97.4644 C253.9616,98.4204 254.5976,99.2704 255.4496,100.0104 C255.9776,100.7564 256.6146,101.1274 257.3576,101.1274 C258.5256,100.9154 259.6396,100.9154 260.7026,101.1274 C261.7596,101.3404 262.8746,101.5524 264.0446,101.7614 C264.7846,101.9734 265.3416,101.867437 265.7146,101.4444 C266.0876,101.0214 266.4836,100.5954 266.9096,100.1714 C267.5466,99.5334 267.5466,98.7394 266.9096,97.7824 C266.3766,96.6164 265.8466,95.4744 265.3186,94.3604" id="Fill-14" fill="#FDFFFC"></path>
                <path d="M315.3254,93.0069 C315.3254,91.8409 315.2184,91.0719 315.0064,90.6979 C314.7924,90.3289 314.1034,89.8779 312.9374,89.3469 C311.9814,89.0279 310.8674,88.9759 309.5934,89.1879 L308.2414,89.1879 C307.8684,89.1879 307.4174,89.1359 306.8874,89.0279 C306.0374,88.8169 305.2174,88.7099 304.4204,88.7099 L301.9524,88.7099 L298.6894,88.7099 C297.6794,88.7099 296.6454,88.7639 295.5854,88.8699 C294.0974,88.8699 292.4544,88.6049 290.6514,88.0729 C289.2694,87.7539 288.1554,86.7999 287.3064,85.2079 C286.7764,84.0399 286.4564,82.8489 286.3524,81.6259 C286.2474,80.4059 286.2474,79.1579 286.3524,77.8849 C286.4564,76.8259 286.4564,75.7899 286.3524,74.7819 C286.2474,73.7739 286.1934,72.7909 286.1934,71.8369 L286.1934,67.2989 C286.1934,65.7619 286.2474,64.2499 286.3524,62.7629 C286.3524,62.4449 286.4044,62.2339 286.5134,62.1249 C287.8894,58.9439 290.1184,57.1929 293.1974,56.8719 C293.7284,56.7689 294.1784,56.7399 294.5514,56.7929 C294.9224,56.8489 295.3194,56.9289 295.7454,57.0319 C296.6994,57.1379 297.6554,57.1379 298.6094,57.0319 C299.5644,56.9289 300.5204,56.8719 301.4744,56.8719 C302.2184,56.9809 302.8294,56.7689 303.3054,56.2359 C303.7834,55.7059 304.1264,55.0179 304.3404,54.1669 C304.6594,53.0009 304.6834,51.8079 304.4204,50.5849 C304.1544,49.3649 304.0744,48.1709 304.1824,47.0029 C304.2864,46.2629 303.9154,45.7849 303.0684,45.5689 C302.2184,45.2519 301.3954,44.9349 300.6004,44.6149 C299.8044,44.2979 298.9294,44.2979 297.9724,44.6149 C297.4414,44.8289 296.9114,44.8289 296.3824,44.6149 C295.8484,44.4029 295.3194,44.3239 294.7904,44.3779 C294.2574,44.4319 293.7284,44.5119 293.1974,44.6149 C292.3464,44.8289 291.5264,44.8559 290.7314,44.6949 C289.9344,44.5349 289.1124,44.3519 288.2634,44.1379 C287.8384,44.1379 287.5184,43.9269 287.3064,43.5009 C286.9894,42.9729 286.6964,42.4149 286.4324,41.8299 C286.1674,41.2469 286.0354,40.6359 286.0354,39.9989 C285.9284,38.1959 285.8994,36.4449 285.9554,34.7459 C286.0074,33.0489 285.9284,31.2979 285.7164,29.4929 C285.6104,27.6909 285.5824,25.9649 285.6364,24.3199 C285.6874,22.6749 285.7674,20.9519 285.8764,19.1469 C286.0874,16.8129 287.0944,15.3249 288.9004,14.6889 C289.9584,14.3709 290.9954,14.1079 292.0034,13.8939 C293.0124,13.6829 294.0974,13.6829 295.2674,13.8939 C296.4334,13.9999 297.6284,14.1079 298.8494,14.2109 C300.0674,14.3189 301.2614,14.2659 302.4314,14.0519 C303.5974,13.9479 304.7914,13.9199 306.0114,13.9719 C307.2314,14.0279 308.4254,14.0519 309.5934,14.0519 C311.5044,14.0519 313.2014,13.5229 314.6884,12.4599 C315.1094,12.2489 315.3254,11.8799 315.3254,11.3459 C315.1094,10.4979 315.1094,9.7029 315.3254,8.9579 C315.5354,8.2179 315.5894,7.4209 315.4834,6.5699 C315.4834,5.8299 315.4294,5.1129 315.3254,4.4219 C315.2184,3.7339 314.7924,3.1759 314.0524,2.7509 C313.4154,2.5389 312.7774,2.2999 312.1404,2.0339 C311.5044,1.7709 310.8674,1.6369 310.2304,1.6369 C308.1054,1.6369 305.9574,1.6109 303.7834,1.5569 C301.6064,1.5049 299.4584,1.5829 297.3364,1.7939 C295.2124,2.0079 293.0394,2.0879 290.8094,2.0339 C288.5814,1.9829 286.4044,1.8509 284.2844,1.6369 C283.3284,1.4249 282.3744,1.3979 281.4174,1.5569 C280.4634,1.7149 279.5094,1.6909 278.5524,1.4769 C278.4464,1.4769 278.1804,1.5829 277.7584,1.7939 C274.5734,3.0689 273.1934,5.2969 273.6184,8.4819 C273.7224,9.8609 273.7224,11.1869 273.6184,12.4599 C273.4054,13.6309 273.2994,14.7689 273.2994,15.8829 C273.2994,16.9959 273.4054,18.1389 273.6184,19.3049 C273.7224,20.1549 273.7224,20.9519 273.6184,21.6929 C273.5114,22.4379 273.5624,23.2319 273.7784,24.0799 C273.9874,24.9309 274.0964,25.7279 274.0964,26.4689 L274.0964,28.8569 C274.0964,29.2809 274.0674,29.6789 274.0154,30.0499 C273.9624,30.4239 273.9354,30.7669 273.9354,31.0839 C274.0424,32.8919 274.1224,34.6139 274.1764,36.2579 C274.2274,37.9049 274.0964,39.5759 273.7784,41.2739 L273.7784,41.7499 C273.9874,43.4489 274.0154,45.0929 273.8564,46.6859 C273.6984,48.2779 273.7224,49.8679 273.9354,51.4599 C274.0424,51.5679 274.0424,51.6189 273.9354,51.6189 C273.8304,52.8939 273.8304,54.1419 273.9354,55.3609 C274.0424,56.5809 273.9874,57.7759 273.7784,58.9439 C273.5624,59.4739 273.5914,60.0049 273.8564,60.5339 C274.1224,61.0659 274.2564,61.5969 274.2564,62.1249 C274.2564,63.6129 274.2274,65.0989 274.1764,66.5839 C274.1224,68.0699 274.0964,69.5549 274.0964,71.0399 C273.9874,72.8459 273.8824,74.6759 273.7784,76.5329 C273.6704,78.3899 273.6704,80.2729 273.7784,82.1839 C273.7784,83.2449 273.8024,84.2789 273.8564,85.2879 C273.9104,86.2959 273.9354,87.3329 273.9354,88.3909 L273.9354,91.2559 C273.9354,92.2119 274.0424,93.1659 274.2564,94.1229 C274.4674,94.5479 274.4674,94.9179 274.2564,95.2369 C273.7224,97.7819 274.6254,99.5329 276.9614,100.4899 C277.5974,100.7039 278.2344,100.9149 278.8714,101.1269 C279.5094,101.3409 280.1974,101.4449 280.9404,101.4449 C281.6824,101.5529 282.3744,101.5529 283.0114,101.4449 C283.6474,101.3409 284.3364,101.2839 285.0794,101.2839 C287.8384,101.3929 290.6234,101.4209 293.4364,101.3639 C296.2484,101.3129 299.0334,101.2839 301.7954,101.2839 L301.7954,101.4449 C302.7494,101.4449 303.7034,101.4729 304.6594,101.5249 C305.6144,101.5779 306.5704,101.5529 307.5244,101.4449 C308.4784,101.4449 309.4354,101.4209 310.3894,101.3639 C311.3444,101.3129 312.2444,101.1809 313.0954,100.9669 C314.0524,100.6479 314.6884,100.2779 315.0064,99.8539 C315.3254,99.4299 315.5354,98.7389 315.6424,97.7819 C315.6424,96.9339 315.6144,96.1399 315.5624,95.3949 C315.5094,94.6539 315.4294,93.8579 315.3254,93.0069" id="Fill-16" fill="#FDFFFC"></path>
            </g>
        </g>
    </g>
</svg>